PathFileType	4	(X/Y/Z)	Patient4_TMGait_0pt2_03_right_08.trc.trc
DataRate	CameraRate	NumFrames	NumMarkers	Units	OrigDataRate	OrigDataStartFrame	OrigNumFrames
46.979865771812	46.979865771812	4	33	mm	46.979865771812	36	       141
Frame#	Time	Sacral			L.Shoulder			Chest			R.Shoulder			Neck			R.ASIS			L.ASIS			R.Thigh.Superior			R.Thigh.Lateral			R.Thigh.Inferior			R.Patella			L.Thigh.Superior			L.Thigh.Lateral			L.Thigh.Inferior			L.Patella			L.Shank.Superior			L.Shank.Lateral			L.Shank.Inferior			R.Shank.Superior			R.Shank.Lateral			R.Shank.Inferior			R.Heel			R.Midfoot.Superior			R.Midfoot.Lateral			R.Toe			L.Heel			L.Midfoot.Lateral			L.Midfoot.Superior			L.Toe			L.Elbow			L.Wrist			R.Elbow			R.Wrist			
		X1	Y1	Z1	X2	Y2	Z2	X3	Y3	Z3	X4	Y4	Z4	X5	Y5	Z5	X6	Y6	Z6	X7	Y7	Z7	X8	Y8	Z8	X9	Y9	Z9	X10	Y10	Z10	X11	Y11	Z11	X12	Y12	Z12	X13	Y13	Z13	X14	Y14	Z14	X15	Y15	Z15	X16	Y16	Z16	X17	Y17	Z17	X18	Y18	Z18	X19	Y19	Z19	X20	Y20	Z20	X21	Y21	Z21	X22	Y22	Z22	X23	Y23	Z23	X24	Y24	Z24	X25	Y25	Z25	X26	Y26	Z26	X27	Y27	Z27	X28	Y28	Z28	X29	Y29	Z29	X30	Y30	Z30	X31	Y31	Z31	X32	Y32	Z32	X33	Y33	Z33	

36	17.795000000000	766.038627753439	1018.949624132156	515.858270243530	970.709110406051	1437.582436987748	350.342195584847	1047.211717481697	1375.153242908200	525.308253661332	940.589645976670	1453.381843091126	683.567804832017	917.851679697331	1502.396324926643	502.018271249389	979.954096872693	948.906584078031	659.269153686776	995.628854776753	967.061316589426	385.434362951873	1014.579652452919	741.876364334540	625.944522518072	927.380463774943	636.615528078738	685.028621169677	1001.250045303563	581.123447487311	604.662445983661	998.589941159423	498.019675883227	610.138144557147	998.242888473153	736.211428854618	399.020483245548	891.733878488255	641.655308645256	318.846762408078	957.768584792449	546.677279873522	376.632219115163	947.360322655732	478.028512560093	377.564480116087	906.690767088949	415.362757789263	362.714380095336	798.274225309526	324.723252374660	299.731106250365	827.670527272369	198.123699101163	356.881095524041	973.355246061293	409.242608758740	618.894044258077	906.337484223974	306.189805123167	686.429156258696	945.916192607752	210.214872637360	622.039546957996	810.258664824502	45.068002024786	605.899893161752	985.082760368869	97.583470882382	627.596139470806	899.777638977230	38.357234679012	672.720161646396	1106.560418495041	42.975814753198	645.115999162978	676.363359907715	57.347105499089	381.177639112163	753.736629716997	45.313522729031	305.430930894962	841.153963595411	99.202761040747	334.944494109295	964.579006237072	38.142954967936	312.408642972318	1023.659132366196	1087.541474490160	232.568707198023	1259.745613048844	983.713104659706	252.138693608923	821.913438143936	1130.154029427536	805.036702129090	833.376816907767	870.181069131329	832.363108383383	
37	17.816285714286	765.693334414963	1019.174225048285	522.934944884990	968.847701307401	1437.202536228658	354.408112581447	1047.572191222274	1374.960944570966	528.576613375108	942.994572752080	1453.354717788501	688.065156396088	918.168144540780	1502.556220694085	506.515312344653	981.137922505299	948.849739675295	663.980397488188	993.814384230145	967.258676451716	389.988100341836	1014.769244743788	741.759256058230	629.471113156882	927.708473445816	636.290717176392	688.630691475924	1000.889640449272	580.918105409399	607.591007814505	997.896723876667	497.451255632089	612.636614817673	999.700858702761	737.337360677872	402.752142017576	894.662340740045	641.975550330322	322.514379808859	962.667045735642	547.120477383365	379.028338954515	953.394746500119	477.257654802668	378.880001159077	910.473784764031	414.999638459771	364.269378239284	799.689630664569	327.042065066187	301.458669876649	827.138741115162	199.373816569599	357.008402054674	972.027597828988	408.860458394877	620.806808997380	904.488136481474	305.822252854700	687.723766210812	943.079509861632	210.002062346990	622.629376175971	806.135611479482	45.388905662925	605.843510438930	981.015754875278	97.487554969405	627.558496980953	895.640755049696	38.493677345785	672.610988729871	1102.461017498542	42.390628514035	645.240267682484	673.161436406997	61.441340553452	380.760885312098	750.275928680086	47.414165856670	305.190505195013	838.739572878861	99.840562573884	334.384432355260	960.652111758787	37.870804319967	312.337131312237	1010.945067939214	1083.992138110674	239.573786407178	1236.144203827487	959.056978854294	259.140867868474	832.980254473042	1126.951060819580	812.055473124681	852.267381762490	867.555913845187	840.357311652799	
38	17.837571428571	765.143087781784	1019.197487640287	529.899184478256	966.743833620749	1436.722793352005	358.482627853235	1047.698710651865	1374.557838451340	531.786191513890	945.258294817312	1453.087624707121	692.540952506279	918.270887696992	1502.534946536929	511.040973619399	982.100436089349	948.618373873778	668.509582818380	991.676181866643	967.333535033179	394.406480084593	1014.909342804783	741.537966619398	632.868178515008	928.069108113194	635.796486151408	692.075592980033	1000.640293361897	580.621363783987	610.401590807727	997.379388694795	496.706415800177	615.083055687567	1001.474139981969	738.583198523876	406.511800746263	898.278825441360	642.103022967192	326.064939128872	968.504558618263	547.655818836859	381.404200319936	960.357856636172	476.467808056483	380.031503995796	915.130879095163	414.592522075382	365.685671152131	801.931030723148	329.566622950730	303.067462288977	827.145433024640	200.853792858021	357.028097967908	970.765548016297	408.310416049721	622.694987864651	902.575422893302	305.338332805557	688.955043860448	940.174832397799	209.665021205066	623.233327823163	801.934945316982	45.609302422657	605.779078498809	976.846486449235	97.377121759183	627.520103293954	891.422208068358	38.573576106521	672.524275385639	1098.268669308641	41.922920224821	645.336355454052	670.271625377905	66.300488854319	380.269574886199	747.008900711793	50.000461953489	304.887378145012	836.654644506882	100.612270806796	333.750369108189	956.710152925218	37.589168958344	312.306083317685	997.996263449366	1080.893465874744	246.457108282986	1209.696587441059	935.015472428613	266.046844500737	844.738191343960	1123.428995039596	818.861634970315	872.501748613917	864.897268219331	847.987157310657	
39	17.858857142857	764.367243676477	1018.953009286718	536.777957595833	964.377012616060	1436.106024999842	362.561823432737	1047.569790118015	1373.890238827755	534.921228039746	947.364331005116	1452.510264623504	696.986636014373	918.142601638193	1502.273195539121	515.595244438203	982.854109342117	948.185825100847	672.847481844430	989.175140002700	967.217072348879	398.680750567323	1015.053373094552	741.195442948401	636.097259259066	928.579564049396	635.095838121863	695.347736787588	1000.587721999074	580.212681527109	613.038919367141	997.162403663094	495.747056026176	617.417410735420	1003.538376115688	739.969243133007	410.285787500014	902.497551968405	642.007810883700	329.531384042502	975.306975767709	548.335528895257	383.772837652924	968.281773050128	475.719158435397	381.056948601350	920.734710095762	414.181683853580	366.986336650682	805.069577013019	332.365326734108	304.596042001817	827.759108386000	202.641832434066	356.981558709293	969.663173748305	407.553736500111	624.510375977348	900.712996737650	304.719026302863	690.128025769660	937.248528683019	209.179445278874	623.827767237780	797.670620544021	45.716831646018	605.725073537133	972.591432360073	97.255580752944	627.489491873171	887.136871352952	38.594611784692	672.474595380159	1094.004325915076	41.578027340634	645.411514798052	667.782057347794	72.091906498330	379.760037404015	743.983369337112	53.234144536463	304.566322822567	834.940851121693	101.599231141050	333.091365507326	952.736556204782	37.261918485823	312.329930456550	984.871440327120	1078.231101620054	253.174179157447	1180.578090955602	912.100758497439	272.733080469831	857.166443623477	1119.583632833598	825.415885411362	894.136647534006	862.283446183213	855.174225098130	
